<?xml version="1.0" encoding="UTF-8" standalone="no"?>
<svg width="423px" height="423px" viewBox="0 0 423 423" version="1.1" xmlns="http://www.w3.org/2000/svg" xmlns:xlink="http://www.w3.org/1999/xlink" xmlns:sketch="http://www.bohemiancoding.com/sketch/ns">
    <!-- Generator: Sketch 3.2 (9961) - http://www.bohemiancoding.com/sketch -->
    <title>Icon</title>
    <desc>Created with Sketch.</desc>
    <defs>
        <path d="M489,608 C571.842712,608 639,540.842712 639,458 C639,375.157288 571.842712,308 489,308 C406.157288,308 339,375.157288 339,458 C339,540.842712 406.157288,608 489,608 Z M489.5,540 C534.511207,540 571,503.511207 571,458.5 C571,413.488793 534.511207,377 489.5,377 C444.488793,377 408,413.488793 408,458.5 C408,503.511207 444.488793,540 489.5,540 Z" id="path-1"></path>
    </defs>
    <g id="Page-1" stroke="none" stroke-width="1" fill="none" fill-rule="evenodd" sketch:type="MSPage">
        <g id="Desktop-HD" sketch:type="MSArtboardGroup" transform="translate(-279.000000, -250.000000)">
            <path d="M382.733383,555.483032 C418.262001,587.817316 436.175683,659 488,659 C546.072947,659 559.451967,595.01154 595.989502,555.483032 C628.947746,519.826817 688,511.384003 688,459 C688,414.632653 620.435632,390.476367 595.989502,357.305038 C559.574545,307.893025 554.089603,259 488,259 C440.357311,259 417.087386,329.494893 382.733383,357.305038 C337.439523,393.971183 288,396.185739 288,459 C288,517.632633 342.537264,518.900896 382.733383,555.483032 Z" id="Oval-5" stroke="#F69B23" stroke-width="6" sketch:type="MSShapeGroup"></path>
            <circle id="Oval-8" stroke="#F69B23" stroke-width="4" sketch:type="MSShapeGroup" cx="388" cy="344" r="10"></circle>
            <circle id="Oval-6" stroke="#F69B23" stroke-width="4" sketch:type="MSShapeGroup" cx="387" cy="573" r="10"></circle>
            <circle id="Oval-9" stroke="#F69B23" stroke-width="4" sketch:type="MSShapeGroup" cx="606" cy="557" r="10"></circle>
            <circle id="Oval-7" stroke="#F69B23" stroke-width="4" sketch:type="MSShapeGroup" cx="606" cy="359" r="10"></circle>
            <mask id="mask-2" sketch:name="Oval 1" fill="white">
                <use xlink:href="#path-1"></use>
            </mask>
            <use id="Oval-1" fill="#FFFFFF" sketch:type="MSShapeGroup" xlink:href="#path-1"></use>
            <rect id="Rectangle-3" fill="#F69B23" sketch:type="MSShapeGroup" mask="url(#mask-2)" x="449" y="308" width="80" height="300">
                <g transform="translate(489.000000, 458.000000) rotate(90.000000) translate(-489.000000, -458.000000) "></g>
            </rect>
            <rect id="Rectangle-2" fill="#F69B23" sketch:type="MSShapeGroup" mask="url(#mask-2)" x="449" y="308" width="80" height="300"></rect>
            <circle id="Oval-3" stroke-opacity="0.300611413" stroke="#979797" stroke-width="15" sketch:type="MSShapeGroup" mask="url(#mask-2)" cx="489" cy="458" r="150"></circle>
            <circle id="Oval-4" stroke-opacity="0.300611413" stroke="#979797" stroke-width="15" sketch:type="MSShapeGroup" mask="url(#mask-2)" cx="489" cy="458" r="75"></circle>
        </g>
    </g>
</svg>